<svg xmlns="http://www.w3.org/2000/svg" viewBox="0 0 1200 450" width="1200" height="450" preserveAspectRatio="xMidYMid slice">
<defs>
<linearGradient id="bkleviticus-sky" x1="0" y1="0" x2="0" y2="450" gradientUnits="userSpaceOnUse"><stop offset="0" stop-color="#4E86B4"/><stop offset="0.38" stop-color="#8FB0C6"/><stop offset="0.72" stop-color="#C6C2A6"/><stop offset="1" stop-color="#E6D2A2"/></linearGradient>
<radialGradient id="bkleviticus-glow" cx="420" cy="236" r="400" gradientUnits="userSpaceOnUse"><stop offset="0" stop-color="#FFF2CC" stop-opacity="0.55"/><stop offset="0.36" stop-color="#FFF2CC" stop-opacity="0.16"/><stop offset="1" stop-color="#FFF2CC" stop-opacity="0"/></radialGradient>
<linearGradient id="bkleviticus-water" x1="0" y1="274" x2="0" y2="450" gradientUnits="userSpaceOnUse"><stop offset="0" stop-color="#9F916D"/><stop offset="0.42" stop-color="#65593C"/><stop offset="1" stop-color="#463C28"/></linearGradient>
<linearGradient id="bkleviticus-haze" x1="0" y1="274" x2="0" y2="450" gradientUnits="userSpaceOnUse"><stop offset="0" stop-color="#F0DCA8" stop-opacity="0.26"/><stop offset="1" stop-color="#F0DCA8" stop-opacity="0.03"/></linearGradient>
</defs>
<rect width="1200" height="450" fill="url(#bkleviticus-sky)"/>
<rect width="1200" height="450" fill="url(#bkleviticus-glow)"/>
<circle cx="420" cy="236" r="28" fill="#FFFDF0" opacity="0.8"/>
<path d="M-60 288.9C-35.6 288.9 -11.1 289.3 13.3 289.3C37.8 289.3 62.2 285.3 86.7 285.3C111.1 285.3 135.6 284 160 284C184.4 284 208.9 288 233.3 288C257.8 288 282.2 292.3 306.7 292.3C331.1 292.3 355.6 289.6 380 289.6C404.4 289.6 428.9 278 453.3 278C477.8 278 502.2 263.3 526.7 263.3C551.1 263.3 575.6 254.2 600 254.2C624.4 254.2 648.9 254.7 673.3 254.7C697.8 254.7 722.2 260.8 746.7 260.8C771.1 260.8 795.6 264.9 820 264.9C844.4 264.9 868.9 263.5 893.3 263.5C917.8 263.5 942.2 260.8 966.7 260.8C991.1 260.8 1015.6 263.7 1040 263.7C1064.4 263.7 1088.9 274.9 1113.3 274.9C1137.8 274.9 1162.2 289.1 1186.7 289.1C1211.1 289.1 1235.6 297.5 1260 297.5L1260 490L-60 490Z" fill="#B0A47C" opacity="0.5"/>
<path d="M-60 309.8C-35.6 309.8 -11.1 310 13.3 310C37.8 310 62.2 308.3 86.7 308.3C111.1 308.3 135.6 294.2 160 294.2C184.4 294.2 208.9 284.1 233.3 284.1C257.8 284.1 282.2 291.6 306.7 291.6C331.1 291.6 355.6 302.1 380 302.1C404.4 302.1 428.9 302.5 453.3 302.5C477.8 302.5 502.2 305.3 526.7 305.3C551.1 305.3 575.6 318.3 600 318.3C624.4 318.3 648.9 323.8 673.3 323.8C697.8 323.8 722.2 312.1 746.7 312.1C771.1 312.1 795.6 300.9 820 300.9C844.4 300.9 868.9 300.9 893.3 300.9C917.8 300.9 942.2 298.2 966.7 298.2C991.1 298.2 1015.6 287.4 1040 287.4C1064.4 287.4 1088.9 286.8 1113.3 286.8C1137.8 286.8 1162.2 301.8 1186.7 301.8C1211.1 301.8 1235.6 312.4 1260 312.4L1260 490L-60 490Z" fill="#8A7C58" opacity="0.86"/>
<g fill="#65593C"><path d="M549.4 304L558.6 258L641.4 258L650.6 304Z"/><rect x="540.2" y="246.5" width="119.6" height="11.5"/></g><path d="M600 241.9q-25.3 -34.5 0 -59.8 q23 43.7 27.6 -52.9" fill="none" stroke="#F0DCA8" stroke-width="6.9" stroke-linecap="round" opacity="0.45"/>
<path d="M-60 368C-35.6 368 -11.1 356.8 13.3 356.8C37.8 356.8 62.2 352.6 86.7 352.6C111.1 352.6 135.6 370.8 160 370.8C184.4 370.8 208.9 374.5 233.3 374.5C257.8 374.5 282.2 377.5 306.7 377.5C331.1 377.5 355.6 385.7 380 385.7C404.4 385.7 428.9 369.4 453.3 369.4C477.8 369.4 502.2 358.5 526.7 358.5C551.1 358.5 575.6 362 600 362C624.4 362 648.9 355.1 673.3 355.1C697.8 355.1 722.2 365.2 746.7 365.2C771.1 365.2 795.6 382.7 820 382.7C844.4 382.7 868.9 377.6 893.3 377.6C917.8 377.6 942.2 378.2 966.7 378.2C991.1 378.2 1015.6 375.1 1040 375.1C1064.4 375.1 1088.9 355.1 1113.3 355.1C1137.8 355.1 1162.2 356.5 1186.7 356.5C1211.1 356.5 1235.6 364.2 1260 364.2L1260 490L-60 490Z" fill="#65593C"/>
<g fill="#463C28"><path d="M741.6 368.5q1.9 -12.5 14.4 -10.6 q13.5 -1.9 14.4 10.6 Z"/><rect x="767.5" y="353.2" width="8.6" height="7.7" rx="2.9"/><path d="M827.5 385.5q1.8 -11.6 13.4 -9.8 q12.5 -1.8 13.4 9.8 Z"/><rect x="851.7" y="371.2" width="8" height="7.2" rx="2.7"/><path d="M912.1 383.7q1.6 -10.7 12.3 -9 q11.5 -1.6 12.3 9 Z"/><rect x="934.3" y="370.5" width="7.4" height="6.6" rx="2.5"/><path d="M1002.8 379.4q2 -13.2 15.3 -11.2 q14.3 -2 15.3 11.2 Z"/><rect x="1030.3" y="363.1" width="9.2" height="8.1" rx="3.1"/><path d="M1061.5 390.5q1.8 -11.7 13.5 -9.9 q12.6 -1.8 13.5 9.9 Z"/><rect x="1085.9" y="376" width="8.1" height="7.2" rx="2.7"/></g>
<path d="M-60 395.8C-35.6 395.8 -11.1 407.7 13.3 407.7C37.8 407.7 62.2 418.4 86.7 418.4C111.1 418.4 135.6 415 160 415C184.4 415 208.9 414.4 233.3 414.4C257.8 414.4 282.2 394.9 306.7 394.9C331.1 394.9 355.6 402 380 402C404.4 402 428.9 401.4 453.3 401.4C477.8 401.4 502.2 417.2 526.7 417.2C551.1 417.2 575.6 418.9 600 418.9C624.4 418.9 648.9 410.1 673.3 410.1C697.8 410.1 722.2 405.2 746.7 405.2C771.1 405.2 795.6 392.3 820 392.3C844.4 392.3 868.9 407.8 893.3 407.8C917.8 407.8 942.2 409.1 966.7 409.1C991.1 409.1 1015.6 422.1 1040 422.1C1064.4 422.1 1088.9 412.9 1113.3 412.9C1137.8 412.9 1162.2 402.8 1186.7 402.8C1211.1 402.8 1235.6 399.7 1260 399.7L1260 490L-60 490Z" fill="#463C28"/>
<path d="M528.8 411q120 -4.9 280 7.9M74.4 443.6q120 1.5 280 -8M78.2 463.3q120 5.1 280 0.7M427.6 474.6q120 4.5 280 3.5M133 507q120 -3.9 280 5.6M340.5 521.9q120 -9.1 280 -4.4M896.2 543.5q120 -2.4 280 -1.4" fill="none" stroke="#F0DCA8" stroke-width="2" stroke-linecap="round" opacity="0.22"/>
</svg>
