<svg xmlns="http://www.w3.org/2000/svg" viewBox="0 0 1200 450" width="1200" height="450" preserveAspectRatio="xMidYMid slice">
<defs>
<linearGradient id="bkjeremia-sky" x1="0" y1="0" x2="0" y2="450" gradientUnits="userSpaceOnUse"><stop offset="0" stop-color="#3C4A56"/><stop offset="0.38" stop-color="#5E6E72"/><stop offset="0.72" stop-color="#88907E"/><stop offset="1" stop-color="#B8B48C"/></linearGradient>
<radialGradient id="bkjeremia-glow" cx="880" cy="200" r="340" gradientUnits="userSpaceOnUse"><stop offset="0" stop-color="#E4E4C0" stop-opacity="0.55"/><stop offset="0.36" stop-color="#E4E4C0" stop-opacity="0.16"/><stop offset="1" stop-color="#E4E4C0" stop-opacity="0"/></radialGradient>
<linearGradient id="bkjeremia-water" x1="0" y1="254" x2="0" y2="450" gradientUnits="userSpaceOnUse"><stop offset="0" stop-color="#73795E"/><stop offset="0.42" stop-color="#3E442F"/><stop offset="1" stop-color="#26291C"/></linearGradient>
<linearGradient id="bkjeremia-haze" x1="0" y1="254" x2="0" y2="450" gradientUnits="userSpaceOnUse"><stop offset="0" stop-color="#CCCF9E" stop-opacity="0.26"/><stop offset="1" stop-color="#CCCF9E" stop-opacity="0.03"/></linearGradient>
</defs>
<rect width="1200" height="450" fill="url(#bkjeremia-sky)"/>
<rect width="1200" height="450" fill="url(#bkjeremia-glow)"/>
<g fill="#7E866A" opacity="0.3"><path d="M-65.9 94.3q14.6 -27.1 54.1 -14.6 q22.9 -27.1 68.7 4.2 q31.2 6.2 54.1 37.5 Z"/><path d="M249.6 144.8q19.4 -36 72.1 -19.4 q30.5 -36 91.5 5.5 q41.6 8.3 72.1 49.9 Z"/><path d="M671.2 158.8q16.3 -30.3 60.6 -16.3 q25.7 -30.3 77 4.7 q35 7 60.6 42 Z"/><path d="M1088.4 147.1q13.9 -25.8 51.6 -13.9 q21.8 -25.8 65.5 4 q29.8 6 51.6 35.7 Z"/></g>
<path d="M-60 268.9C-35.6 268.9 -11.1 269.3 13.3 269.3C37.8 269.3 62.2 265.3 86.7 265.3C111.1 265.3 135.6 264 160 264C184.4 264 208.9 268 233.3 268C257.8 268 282.2 272.3 306.7 272.3C331.1 272.3 355.6 269.6 380 269.6C404.4 269.6 428.9 258 453.3 258C477.8 258 502.2 243.3 526.7 243.3C551.1 243.3 575.6 234.2 600 234.2C624.4 234.2 648.9 234.7 673.3 234.7C697.8 234.7 722.2 240.8 746.7 240.8C771.1 240.8 795.6 244.9 820 244.9C844.4 244.9 868.9 243.5 893.3 243.5C917.8 243.5 942.2 240.8 966.7 240.8C991.1 240.8 1015.6 243.7 1040 243.7C1064.4 243.7 1088.9 254.9 1113.3 254.9C1137.8 254.9 1162.2 269.1 1186.7 269.1C1211.1 269.1 1235.6 277.5 1260 277.5L1260 490L-60 490Z" fill="#7E866A" opacity="0.5"/>
<path d="M-60 289.8C-35.6 289.8 -11.1 290 13.3 290C37.8 290 62.2 288.3 86.7 288.3C111.1 288.3 135.6 274.2 160 274.2C184.4 274.2 208.9 264.1 233.3 264.1C257.8 264.1 282.2 271.6 306.7 271.6C331.1 271.6 355.6 282.1 380 282.1C404.4 282.1 428.9 282.5 453.3 282.5C477.8 282.5 502.2 285.3 526.7 285.3C551.1 285.3 575.6 298.3 600 298.3C624.4 298.3 648.9 303.8 673.3 303.8C697.8 303.8 722.2 292.1 746.7 292.1C771.1 292.1 795.6 280.9 820 280.9C844.4 280.9 868.9 280.9 893.3 280.9C917.8 280.9 942.2 278.2 966.7 278.2C991.1 278.2 1015.6 267.4 1040 267.4C1064.4 267.4 1088.9 266.8 1113.3 266.8C1137.8 266.8 1162.2 281.8 1186.7 281.8C1211.1 281.8 1235.6 292.4 1260 292.4L1260 490L-60 490Z" fill="#5A6248" opacity="0.86"/>
<g transform="translate(320 284) scale(1.2)" fill="#3E442F"><path d="M-4 0q2 -30 0 -52l8 0q-2 22 0 52Z"/><path d="M0 -96q34 4 44 30q16 12 6 30q-14 16 -50 14q-36 2 -50 -14q-10 -18 6 -30q10 -26 44 -30Z"/></g>
<path d="M-60 348C-35.6 348 -11.1 336.8 13.3 336.8C37.8 336.8 62.2 332.6 86.7 332.6C111.1 332.6 135.6 350.8 160 350.8C184.4 350.8 208.9 354.5 233.3 354.5C257.8 354.5 282.2 357.5 306.7 357.5C331.1 357.5 355.6 365.7 380 365.7C404.4 365.7 428.9 349.4 453.3 349.4C477.8 349.4 502.2 338.5 526.7 338.5C551.1 338.5 575.6 342 600 342C624.4 342 648.9 335.1 673.3 335.1C697.8 335.1 722.2 345.2 746.7 345.2C771.1 345.2 795.6 362.7 820 362.7C844.4 362.7 868.9 357.6 893.3 357.6C917.8 357.6 942.2 358.2 966.7 358.2C991.1 358.2 1015.6 355.1 1040 355.1C1064.4 355.1 1088.9 335.1 1113.3 335.1C1137.8 335.1 1162.2 336.5 1186.7 336.5C1211.1 336.5 1235.6 344.2 1260 344.2L1260 490L-60 490Z" fill="#3E442F"/>
<g fill="#26291C"><rect x="628.4" y="303.8" width="16.5" height="51.2"/><rect x="624.4" y="296.8" width="24.5" height="7"/><rect x="783.6" y="267.4" width="22.8" height="87.6"/><rect x="779.6" y="260.4" width="30.8" height="7"/><rect x="958.6" y="290.6" width="24.6" height="64.4"/><rect x="954.6" y="283.6" width="32.6" height="7"/><rect x="1133.6" y="308.8" width="23.1" height="46.2"/><rect x="1129.6" y="301.8" width="31.1" height="7"/><path d="M610 355q200 -16 400 0Z"/></g>
<path d="M-60 395.8C-35.6 395.8 -11.1 407.7 13.3 407.7C37.8 407.7 62.2 418.4 86.7 418.4C111.1 418.4 135.6 415 160 415C184.4 415 208.9 414.4 233.3 414.4C257.8 414.4 282.2 394.9 306.7 394.9C331.1 394.9 355.6 402 380 402C404.4 402 428.9 401.4 453.3 401.4C477.8 401.4 502.2 417.2 526.7 417.2C551.1 417.2 575.6 418.9 600 418.9C624.4 418.9 648.9 410.1 673.3 410.1C697.8 410.1 722.2 405.2 746.7 405.2C771.1 405.2 795.6 392.3 820 392.3C844.4 392.3 868.9 407.8 893.3 407.8C917.8 407.8 942.2 409.1 966.7 409.1C991.1 409.1 1015.6 422.1 1040 422.1C1064.4 422.1 1088.9 412.9 1113.3 412.9C1137.8 412.9 1162.2 402.8 1186.7 402.8C1211.1 402.8 1235.6 399.7 1260 399.7L1260 490L-60 490Z" fill="#26291C"/>
<g fill="none" stroke="#CCCF9E" stroke-width="1.7" stroke-linecap="round" opacity="0.34"><path d="M19.4 415.8q-2.8 -5.8 -4.9 -9.7M49.6 430.5q-2.1 -7 -1.8 -11.6M113.6 441.6q-0.2 -5.4 3.4 -9M153.9 436.9q-1.7 -6.4 4.5 -10.6M208.2 431.5q2.2 -8.4 -4.4 -14M248.3 432.8q-0.3 -5.8 2.6 -9.6M299.9 434.8q0.1 -5.4 -0.5 -9M345.2 421.7q-1.7 -6.4 -4.2 -10.6M373.8 416q1 -5.8 3.3 -9.7M433 441.5q-2 -8.9 -2.7 -14.9M480.4 417.7q0.4 -9.7 2 -16.2M532.6 418.1q-1.8 -8.2 0.4 -13.6M556.4 422.1q0.9 -7.7 2.1 -12.8M627.9 423.2q-2.4 -9.9 3.9 -16.4M654.2 422.8q2.5 -10 -1.8 -16.7M714.3 425.5q1.1 -10.3 -2.1 -17.1M759.8 415.4q-0.4 -4.6 -0.6 -7.7M784.9 438.2q-3 -4.5 -2.7 -7.5M834.1 439.3q-0.1 -7.5 3.8 -12.5M903.3 440.1q-0.8 -8.4 -2.8 -13.9M935.2 435.7q-2.5 -10.5 -2.9 -17.5M1001.3 418.4q-1.4 -8.4 0.2 -14.1M1045.2 420.5q-0.5 -9.5 -2.2 -15.8M1065.9 427.9q-2.5 -5.5 -4.7 -9.1M1136.7 434.4q-2 -10.1 0.1 -16.9M1173 425q1.6 -8.2 3.8 -13.7"/></g>
</svg>
