<svg xmlns="http://www.w3.org/2000/svg" viewBox="0 0 1200 450" width="1200" height="450" preserveAspectRatio="xMidYMid slice">
<defs>
<linearGradient id="bknahum-sky" x1="0" y1="0" x2="0" y2="450" gradientUnits="userSpaceOnUse"><stop offset="0" stop-color="#2A1220"/><stop offset="0.38" stop-color="#4E1C28"/><stop offset="0.72" stop-color="#7E2E2C"/><stop offset="1" stop-color="#B05838"/></linearGradient>
<radialGradient id="bknahum-glow" cx="620" cy="178" r="340" gradientUnits="userSpaceOnUse"><stop offset="0" stop-color="#FF9C68" stop-opacity="0.55"/><stop offset="0.36" stop-color="#FF9C68" stop-opacity="0.16"/><stop offset="1" stop-color="#FF9C68" stop-opacity="0"/></radialGradient>
<linearGradient id="bknahum-water" x1="0" y1="242" x2="0" y2="450" gradientUnits="userSpaceOnUse"><stop offset="0" stop-color="#6E3B2F"/><stop offset="0.42" stop-color="#341814"/><stop offset="1" stop-color="#1E0E0C"/></linearGradient>
<linearGradient id="bknahum-haze" x1="0" y1="242" x2="0" y2="450" gradientUnits="userSpaceOnUse"><stop offset="0" stop-color="#FF9A72" stop-opacity="0.26"/><stop offset="1" stop-color="#FF9A72" stop-opacity="0.03"/></linearGradient>
</defs>
<rect width="1200" height="450" fill="url(#bknahum-sky)"/>
<rect width="1200" height="450" fill="url(#bknahum-glow)"/>
<g fill="#4E1E1C" opacity="0.42"><path d="M-53.2 74.2q16.3 -30.2 60.4 -16.3 q25.6 -30.2 76.7 4.6 q34.9 7 60.4 41.8 Z"/><path d="M281.7 140.5q22.3 -41.4 82.8 -22.3 q35 -41.4 105.1 6.4 q47.8 9.6 82.8 57.3 Z"/><path d="M711.3 136.2q12.5 -23.3 46.5 -12.5 q19.7 -23.3 59.1 3.6 q26.8 5.4 46.5 32.2 Z"/><path d="M1108.7 136.2q12 -22.3 44.7 -12 q18.9 -22.3 56.7 3.4 q25.8 5.2 44.7 30.9 Z"/></g>
<path d="M-60 256.9C-35.6 256.9 -11.1 257.3 13.3 257.3C37.8 257.3 62.2 253.3 86.7 253.3C111.1 253.3 135.6 252 160 252C184.4 252 208.9 256 233.3 256C257.8 256 282.2 260.3 306.7 260.3C331.1 260.3 355.6 257.6 380 257.6C404.4 257.6 428.9 246 453.3 246C477.8 246 502.2 231.3 526.7 231.3C551.1 231.3 575.6 222.2 600 222.2C624.4 222.2 648.9 222.7 673.3 222.7C697.8 222.7 722.2 228.8 746.7 228.8C771.1 228.8 795.6 232.9 820 232.9C844.4 232.9 868.9 231.5 893.3 231.5C917.8 231.5 942.2 228.8 966.7 228.8C991.1 228.8 1015.6 231.7 1040 231.7C1064.4 231.7 1088.9 242.9 1113.3 242.9C1137.8 242.9 1162.2 257.1 1186.7 257.1C1211.1 257.1 1235.6 265.5 1260 265.5L1260 490L-60 490Z" fill="#6E3A34" opacity="0.5"/>
<path d="M-60 277.8C-35.6 277.8 -11.1 278 13.3 278C37.8 278 62.2 276.3 86.7 276.3C111.1 276.3 135.6 262.2 160 262.2C184.4 262.2 208.9 252.1 233.3 252.1C257.8 252.1 282.2 259.6 306.7 259.6C331.1 259.6 355.6 270.1 380 270.1C404.4 270.1 428.9 270.5 453.3 270.5C477.8 270.5 502.2 273.3 526.7 273.3C551.1 273.3 575.6 286.3 600 286.3C624.4 286.3 648.9 291.8 673.3 291.8C697.8 291.8 722.2 280.1 746.7 280.1C771.1 280.1 795.6 268.9 820 268.9C844.4 268.9 868.9 268.9 893.3 268.9C917.8 268.9 942.2 266.2 966.7 266.2C991.1 266.2 1015.6 255.4 1040 255.4C1064.4 255.4 1088.9 254.8 1113.3 254.8C1137.8 254.8 1162.2 269.8 1186.7 269.8C1211.1 269.8 1235.6 280.4 1260 280.4L1260 490L-60 490Z" fill="#4E2622" opacity="0.86"/>
<g fill="#341814"><rect x="380" y="194" width="420" height="78"/><rect x="380" y="184" width="26.7" height="10"/><rect x="456.4" y="184" width="26.7" height="10"/><rect x="532.7" y="184" width="26.7" height="10"/><rect x="609.1" y="184" width="26.7" height="10"/><rect x="685.5" y="184" width="26.7" height="10"/><rect x="761.8" y="184" width="26.7" height="10"/><rect x="366" y="168" width="26" height="104"/><rect x="788" y="168" width="26" height="104"/></g>
<path d="M534 272q26 -14 52 0q10 -102 -7.8 -170 L541.8 102q8.8 -8 18.2 0Z" fill="#FF9C68" opacity="0.55"/>
<path d="M-60 336C-35.6 336 -11.1 324.8 13.3 324.8C37.8 324.8 62.2 320.6 86.7 320.6C111.1 320.6 135.6 338.8 160 338.8C184.4 338.8 208.9 342.5 233.3 342.5C257.8 342.5 282.2 345.5 306.7 345.5C331.1 345.5 355.6 353.7 380 353.7C404.4 353.7 428.9 337.4 453.3 337.4C477.8 337.4 502.2 326.5 526.7 326.5C551.1 326.5 575.6 330 600 330C624.4 330 648.9 323.1 673.3 323.1C697.8 323.1 722.2 333.2 746.7 333.2C771.1 333.2 795.6 350.7 820 350.7C844.4 350.7 868.9 345.6 893.3 345.6C917.8 345.6 942.2 346.2 966.7 346.2C991.1 346.2 1015.6 343.1 1040 343.1C1064.4 343.1 1088.9 323.1 1113.3 323.1C1137.8 323.1 1162.2 324.5 1186.7 324.5C1211.1 324.5 1235.6 332.2 1260 332.2L1260 490L-60 490Z" fill="#341814"/>
<g fill="#1E0E0C"><rect x="816.9" y="283" width="16.5" height="64"/><rect x="812.9" y="276" width="24.5" height="7"/><rect x="981.8" y="237.9" width="24.8" height="109.1"/><rect x="977.8" y="230.9" width="32.8" height="7"/><rect x="1144.3" y="311" width="24.3" height="36"/><rect x="1140.3" y="304" width="32.3" height="7"/><path d="M790 347q200 -16 400 0Z"/></g>
<path d="M-60 395.8C-35.6 395.8 -11.1 407.7 13.3 407.7C37.8 407.7 62.2 418.4 86.7 418.4C111.1 418.4 135.6 415 160 415C184.4 415 208.9 414.4 233.3 414.4C257.8 414.4 282.2 394.9 306.7 394.9C331.1 394.9 355.6 402 380 402C404.4 402 428.9 401.4 453.3 401.4C477.8 401.4 502.2 417.2 526.7 417.2C551.1 417.2 575.6 418.9 600 418.9C624.4 418.9 648.9 410.1 673.3 410.1C697.8 410.1 722.2 405.2 746.7 405.2C771.1 405.2 795.6 392.3 820 392.3C844.4 392.3 868.9 407.8 893.3 407.8C917.8 407.8 942.2 409.1 966.7 409.1C991.1 409.1 1015.6 422.1 1040 422.1C1064.4 422.1 1088.9 412.9 1113.3 412.9C1137.8 412.9 1162.2 402.8 1186.7 402.8C1211.1 402.8 1235.6 399.7 1260 399.7L1260 490L-60 490Z" fill="#1E0E0C"/>
<g fill="#341814" opacity="0.8"><path transform="translate(751.9 427.8) rotate(22) scale(0.6)" d="M-22 0q-8 -7 0 -9q6 -1 8 3l28 0q2 -4 8 -3q8 2 0 9q8 7 0 9q-6 1 -8 -3l-28 0q-2 4 -8 3q-8 -2 0 -9Z"/><path transform="translate(81.4 420.5) rotate(-16.3) scale(1.2)" d="M-22 0q-8 -7 0 -9q6 -1 8 3l28 0q2 -4 8 -3q8 2 0 9q8 7 0 9q-6 1 -8 -3l-28 0q-2 4 -8 3q-8 -2 0 -9Z"/><path transform="translate(970.7 425.1) rotate(-8.9) scale(0.9)" d="M-22 0q-8 -7 0 -9q6 -1 8 3l28 0q2 -4 8 -3q8 2 0 9q8 7 0 9q-6 1 -8 -3l-28 0q-2 4 -8 3q-8 -2 0 -9Z"/><path transform="translate(307.3 432.8) rotate(-8.4) scale(0.7)" d="M-22 0q-8 -7 0 -9q6 -1 8 3l28 0q2 -4 8 -3q8 2 0 9q8 7 0 9q-6 1 -8 -3l-28 0q-2 4 -8 3q-8 -2 0 -9Z"/><path transform="translate(550.7 421.4) rotate(-3) scale(1.1)" d="M-22 0q-8 -7 0 -9q6 -1 8 3l28 0q2 -4 8 -3q8 2 0 9q8 7 0 9q-6 1 -8 -3l-28 0q-2 4 -8 3q-8 -2 0 -9Z"/><path transform="translate(102.3 416.9) rotate(29.9) scale(0.9)" d="M-22 0q-8 -7 0 -9q6 -1 8 3l28 0q2 -4 8 -3q8 2 0 9q8 7 0 9q-6 1 -8 -3l-28 0q-2 4 -8 3q-8 -2 0 -9Z"/><path transform="translate(385.5 419.2) rotate(0.8) scale(0.7)" d="M-22 0q-8 -7 0 -9q6 -1 8 3l28 0q2 -4 8 -3q8 2 0 9q8 7 0 9q-6 1 -8 -3l-28 0q-2 4 -8 3q-8 -2 0 -9Z"/><path transform="translate(974.1 441) rotate(-1.5) scale(1)" d="M-22 0q-8 -7 0 -9q6 -1 8 3l28 0q2 -4 8 -3q8 2 0 9q8 7 0 9q-6 1 -8 -3l-28 0q-2 4 -8 3q-8 -2 0 -9Z"/></g>
</svg>
