<svg xmlns="http://www.w3.org/2000/svg" viewBox="0 0 1200 450" width="1200" height="450" preserveAspectRatio="xMidYMid slice">
<defs>
<linearGradient id="g1" x1="0" y1="0" x2="0" y2="450" gradientUnits="userSpaceOnUse"><stop offset="0" stop-color="#030812"/><stop offset="0.32" stop-color="#081C28"/><stop offset="0.68" stop-color="#0F3A40"/><stop offset="1" stop-color="#1C635C"/></linearGradient>
<radialGradient id="g2" cx="600" cy="138" r="360" gradientUnits="userSpaceOnUse"><stop offset="0" stop-color="#FFF8EA" stop-opacity="0.66"/><stop offset="0.3" stop-color="#7FE3CB" stop-opacity="0.22"/><stop offset="1" stop-color="#2DD4BF" stop-opacity="0"/></radialGradient>
<linearGradient id="g3" x1="0" y1="134" x2="0" y2="364" gradientUnits="userSpaceOnUse"><stop offset="0" stop-color="#FDF3DC" stop-opacity="0.16"/><stop offset="1" stop-color="#FDF3DC" stop-opacity="0"/></linearGradient>
</defs>
<rect width="1200" height="450" fill="url(#g1)"/>
<rect width="1200" height="450" fill="url(#g2)"/>
<path d="M-60 114.4C-47.8 119.2 -11.1 137.8 13.3 143.3C37.8 148.7 62.2 148 86.7 147.1C111.1 146.1 135.6 146 160 137.5C184.4 129 208.9 103.7 233.3 96.2C257.8 88.8 282.2 93.3 306.7 92.6C331.1 92 355.6 94.7 380 92.4C404.4 90.1 428.9 81.4 453.3 78.8C477.8 76.3 502.2 79.5 526.7 76.9C551.1 74.4 575.6 60.3 600 63.5C624.4 66.7 648.9 84.4 673.3 96.1C697.8 107.9 722.2 126.7 746.7 134.2C771.1 141.6 795.6 139.7 820 141C844.4 142.3 868.9 146.7 893.3 141.8C917.8 137 942.2 117.1 966.7 111.6C991.1 106.2 1015.6 109.2 1040 109.1C1064.4 109 1088.9 115.1 1113.3 111.1C1137.8 107.2 1162.2 91.6 1186.7 85.3C1211.1 79 1247.8 75.3 1260 73.3L1260 -40L-60 -40Z" fill="#07202A" opacity="0.92"/>
<path d="M-60 114.4C-47.8 119.2 -11.1 137.8 13.3 143.3C37.8 148.7 62.2 148 86.7 147.1C111.1 146.1 135.6 146 160 137.5C184.4 129 208.9 103.7 233.3 96.2C257.8 88.8 282.2 93.3 306.7 92.6C331.1 92 355.6 94.7 380 92.4C404.4 90.1 428.9 81.4 453.3 78.8C477.8 76.3 502.2 79.5 526.7 76.9C551.1 74.4 575.6 60.3 600 63.5C624.4 66.7 648.9 84.4 673.3 96.1C697.8 107.9 722.2 126.7 746.7 134.2C771.1 141.6 795.6 139.7 820 141C844.4 142.3 868.9 146.7 893.3 141.8C917.8 137 942.2 117.1 966.7 111.6C991.1 106.2 1015.6 109.2 1040 109.1C1064.4 109 1088.9 115.1 1113.3 111.1C1137.8 107.2 1162.2 91.6 1186.7 85.3C1211.1 79 1247.8 75.3 1260 73.3" fill="none" stroke="#7FE3CB" stroke-width="2.4" opacity="0.26"/>
<path d="M-60 78.8C-47.8 81 -11.1 88.8 13.3 91.6C37.8 94.3 62.2 94.1 86.7 95.3C111.1 96.6 135.6 101.6 160 99.1C184.4 96.6 208.9 89.7 233.3 80.4C257.8 71.2 282.2 52.1 306.7 43.7C331.1 35.2 355.6 30.6 380 29.7C404.4 28.7 428.9 36.5 453.3 38.2C477.8 39.9 502.2 39.3 526.7 40C551.1 40.6 575.6 39.9 600 41.9C624.4 43.9 648.9 51.2 673.3 52.1C697.8 52.9 722.2 50.2 746.7 47.1C771.1 44.1 795.6 33.8 820 33.9C844.4 34.1 868.9 40.5 893.3 48C917.8 55.4 942.2 71.1 966.7 78.6C991.1 86.1 1015.6 89.6 1040 93C1064.4 96.3 1088.9 97.1 1113.3 98.5C1137.8 99.8 1162.2 104.2 1186.7 101.1C1211.1 98 1247.8 83.4 1260 79.9L1260 -40L-60 -40Z" fill="#020A11"/>
<g fill="url(#g3)"><path d="M595 134L605 134L406 364L334 364ZM595 134L605 134L546 364L500.7 364ZM595 134L605 134L699.3 364L654 364ZM595 134L605 134L866 364L794 364Z"/></g>
<g fill="none" stroke="#8FDDD2" stroke-width="1.3" stroke-linecap="round" opacity="0.17"><path d="M7.5 305.2l-5.3 15.6M1233.5 120.7l-9.5 27.8M20.9 293.1l-9.5 28M1217 261.8l-13.1 38.5M919.1 307.8l-13.4 39.5M708.5 137.5l-12.1 35.6M41.6 231.4l-9.1 26.9M1206.6 299.6l-11.8 34.6M224.9 269.7l-8.6 25.3M107.7 117.9l-10.4 30.6M159.2 134.9l-11.9 35.1M322.8 300.9l-12.3 36.3M66.8 338.2l-13.1 38.4M574 126.4l-6.7 19.7M267.2 322l-5.4 15.7M1027.1 236.9l-12.4 36.6M987 124.1l-13.2 38.8M1157.4 313l-12.4 36.3M364.9 261.2l-11.9 34.9M713.2 224.3l-5 14.8M779.3 107.5l-12.7 37.4M524.1 320.4l-6.4 18.9M199.7 216.3l-10.7 31.6M124.1 173.4l-6.6 19.5M585.6 105.9l-11 32.3M180.9 160.6l-11.3 33.2M476 200.7l-7.3 21.3M720.3 349.5l-9.1 26.8M174.4 300.7l-13.6 39.9M1110.6 126.4l-10.8 31.9M587.2 282.9l-5.3 15.5M-9.8 131.6l-12.9 37.9M599.8 175.7l-8 23.6M232.8 152.6l-8.2 24.1M341.9 105.4l-5.5 16.2M1205.7 244.2l-10.2 30M397.4 178l-10 29.4M637 132.3l-7.7 22.5M489.4 237.3l-8.1 23.9M507.8 166.4l-12.2 35.8M551.5 168.5l-5.6 16.4M167.3 304.1l-7.4 21.8M430.3 103.2l-8.5 25.1M764 186l-10.4 30.6M392 315.5l-10 29.5M998.4 128.2l-6.5 19.2M290.4 241.7l-6.6 19.4M483 145.3l-9.1 26.8M343.3 184.2l-7.4 21.7M-14.9 298.9l-12.5 36.7M118.5 313.4l-13.6 39.9M933.1 132.8l-11.6 34.2M1134.4 176.8l-6.4 18.8M1150.5 315.8l-7.7 22.6M524.5 100.9l-10.1 29.7M99 347.4l-11.8 34.8M363.1 206.5l-6.3 18.5M63 316.5l-13.5 39.7M360.2 134.4l-6.8 20.1M818.4 102.2l-8.7 25.5M603.7 279.7l-12.7 37.4M531.6 229l-5 14.8M182 333.5l-12.7 37.4M121.9 167.6l-5.8 17.1"/></g>
<path d="M-60 305.6C-47.8 304.1 -11.1 297.5 13.3 296.5C37.8 295.6 62.2 305.2 86.7 299.9C111.1 294.6 135.6 266.7 160 264.9C184.4 263.1 208.9 283.5 233.3 289.1C257.8 294.7 282.2 295.7 306.7 298.4C331.1 301.1 355.6 308.3 380 305.3C404.4 302.2 428.9 287.4 453.3 280.2C477.8 272.9 502.2 260.9 526.7 261.8C551.1 262.8 575.6 280.1 600 285.8C624.4 291.5 648.9 291.7 673.3 296.2C697.8 300.6 722.2 316.5 746.7 312.5C771.1 308.6 795.6 277.3 820 272.4C844.4 267.6 868.9 282 893.3 283.4C917.8 284.8 942.2 275.6 966.7 280.7C991.1 285.8 1015.6 312.7 1040 314.1C1064.4 315.5 1088.9 295.6 1113.3 289.1C1137.8 282.5 1162.2 278.6 1186.7 274.8C1211.1 271.1 1247.8 267.9 1260 266.5L1260 490L-60 490Z" fill="#15514C" opacity="0.92"/>
<path d="M-60 305.6C-47.8 304.1 -11.1 297.5 13.3 296.5C37.8 295.6 62.2 305.2 86.7 299.9C111.1 294.6 135.6 266.7 160 264.9C184.4 263.1 208.9 283.5 233.3 289.1C257.8 294.7 282.2 295.7 306.7 298.4C331.1 301.1 355.6 308.3 380 305.3C404.4 302.2 428.9 287.4 453.3 280.2C477.8 272.9 502.2 260.9 526.7 261.8C551.1 262.8 575.6 280.1 600 285.8C624.4 291.5 648.9 291.7 673.3 296.2C697.8 300.6 722.2 316.5 746.7 312.5C771.1 308.6 795.6 277.3 820 272.4C844.4 267.6 868.9 282 893.3 283.4C917.8 284.8 942.2 275.6 966.7 280.7C991.1 285.8 1015.6 312.7 1040 314.1C1064.4 315.5 1088.9 295.6 1113.3 289.1C1137.8 282.5 1162.2 278.6 1186.7 274.8C1211.1 271.1 1247.8 267.9 1260 266.5" fill="none" stroke="#7FE3CB" stroke-width="2" opacity="0.24"/>
<path d="M-60 354.2C-47.8 349.9 -11.1 333 13.3 328.4C37.8 323.9 62.2 331.6 86.7 327C111.1 322.4 135.6 300.2 160 300.9C184.4 301.6 208.9 321.3 233.3 331.1C257.8 340.8 282.2 356.7 306.7 359.3C331.1 361.8 355.6 347.6 380 346.4C404.4 345.2 428.9 357.8 453.3 352.2C477.8 346.5 502.2 321.9 526.7 312.6C551.1 303.2 575.6 290.4 600 296.1C624.4 301.8 648.9 338.7 673.3 346.7C697.8 354.7 722.2 343.8 746.7 344.2C771.1 344.7 795.6 347 820 349.5C844.4 352 868.9 366.6 893.3 359.2C917.8 351.8 942.2 313.7 966.7 304.9C991.1 296.1 1015.6 301 1040 306.3C1064.4 311.7 1088.9 331.2 1113.3 336.8C1137.8 342.5 1162.2 335.3 1186.7 340.2C1211.1 345.2 1247.8 362.2 1260 366.6L1260 490L-60 490Z" fill="#0D3739"/>
<g fill="#BFF3E8" opacity="0.32"><rect x="557.2" y="300.5" width="34.2" height="2.8" rx="1.4" opacity="0.3"/><rect x="1063.4" y="320" width="25.8" height="2.8" rx="1.4" opacity="0.9"/><rect x="976.4" y="304.1" width="43.5" height="2.8" rx="1.4" opacity="0.8"/><rect x="159.9" y="303.9" width="21.6" height="2.8" rx="1.4" opacity="0.5"/><rect x="66.1" y="325.8" width="15.7" height="2.8" rx="1.4" opacity="0.7"/><rect x="1212.8" y="353" width="26.8" height="2.8" rx="1.4" opacity="0.9"/><rect x="237.9" y="336.4" width="25.6" height="2.8" rx="1.4" opacity="0.8"/><rect x="558" y="301.5" width="23.4" height="2.8" rx="1.4" opacity="1"/><rect x="1065.8" y="321.4" width="27.8" height="2.8" rx="1.4" opacity="0.7"/><rect x="79.2" y="321.4" width="38.5" height="2.8" rx="1.4" opacity="0.5"/><rect x="103.9" y="316.4" width="17.1" height="2.8" rx="1.4" opacity="0.8"/><rect x="768.6" y="345.7" width="36.8" height="2.8" rx="1.4" opacity="0.9"/><rect x="239.2" y="335.8" width="19.8" height="2.8" rx="1.4" opacity="0.8"/><rect x="365.5" y="345" width="29.6" height="2.8" rx="1.4" opacity="0.5"/><rect x="317.4" y="352.3" width="41.9" height="2.8" rx="1.4" opacity="0.6"/><rect x="471" y="335.8" width="20" height="2.8" rx="1.4" opacity="1"/><rect x="330.5" y="351.8" width="22.1" height="2.8" rx="1.4" opacity="0.8"/><rect x="285.8" y="355" width="26.8" height="2.8" rx="1.4" opacity="0.9"/><rect x="1166.5" y="338.5" width="26.8" height="2.8" rx="1.4" opacity="0.6"/><rect x="293.3" y="357.5" width="31.1" height="2.8" rx="1.4" opacity="0.8"/></g>
<g transform="rotate(-11 600 336)"><path d="M528 322q72 30 144 0q-17 32 -72 32q-55 0 -72 -32Z" fill="#03151A"/><path d="M528 322q72 30 144 0" fill="none" stroke="#A8F0DE" stroke-width="2.6" opacity="0.5"/><path d="M600 330L600 234" stroke="#03151A" stroke-width="5" stroke-linecap="round"/><path d="M606 240L606 322L672 322Z" fill="#114543"/><path d="M606 240L672 322" fill="none" stroke="#A8F0DE" stroke-width="2" opacity="0.42"/><path d="M594 258L594 322L546 322Z" fill="#0B2E32"/></g>
<path d="M-60 409.6C-47.8 407.9 -11.1 401.4 13.3 399.4C37.8 397.5 62.2 398.1 86.7 397.9C111.1 397.7 135.6 402.9 160 398.3C184.4 393.7 208.9 379.8 233.3 370.5C257.8 361.1 282.2 345.8 306.7 342.2C331.1 338.6 355.6 339.5 380 348.8C404.4 358.1 428.9 391.5 453.3 398C477.8 404.6 502.2 387.5 526.7 388.1C551.1 388.8 575.6 397.9 600 402.2C624.4 406.5 648.9 418.7 673.3 413.9C697.8 409 722.2 384.4 746.7 373.2C771.1 362.1 795.6 350.7 820 346.8C844.4 343 868.9 344.1 893.3 350.2C917.8 356.3 942.2 379.2 966.7 383.5C991.1 387.8 1015.6 372.5 1040 376C1064.4 379.4 1088.9 396 1113.3 404.1C1137.8 412.1 1162.2 428.8 1186.7 424.2C1211.1 419.6 1247.8 384.5 1260 376.6L1260 490L-60 490Z" fill="#082226"/>
<g fill="#BFF3E8" opacity="0.34"><rect x="488.8" y="390.6" width="19.1" height="2.8" rx="1.4" opacity="0.4"/><rect x="123.8" y="396.7" width="19.2" height="2.8" rx="1.4" opacity="0.5"/><rect x="1180.3" y="421.6" width="16.5" height="2.8" rx="1.4" opacity="0.8"/><rect x="335.6" y="344.7" width="27.7" height="2.8" rx="1.4" opacity="0.4"/><rect x="551.7" y="394.7" width="33.5" height="2.8" rx="1.4" opacity="0.6"/><rect x="617.9" y="404.6" width="12.1" height="2.8" rx="1.4" opacity="0.5"/><rect x="491.7" y="389.7" width="25.7" height="2.8" rx="1.4" opacity="0.7"/><rect x="1134.4" y="413.5" width="36.6" height="2.8" rx="1.4" opacity="0.8"/><rect x="921.2" y="365" width="15.8" height="2.8" rx="1.4" opacity="0.4"/><rect x="294.8" y="341.6" width="42.5" height="2.8" rx="1.4" opacity="0.8"/><rect x="607.3" y="403.7" width="22.5" height="2.8" rx="1.4" opacity="0.9"/><rect x="948.2" y="376" width="10.4" height="2.8" rx="1.4" opacity="0.7"/><rect x="278.3" y="348.6" width="16.1" height="2.8" rx="1.4" opacity="0.6"/><rect x="709.6" y="381.7" width="38.4" height="2.8" rx="1.4" opacity="0.4"/><rect x="120.6" y="396.7" width="21.3" height="2.8" rx="1.4" opacity="0.8"/><rect x="972.1" y="379.5" width="40" height="2.8" rx="1.4" opacity="0.7"/><rect x="104.2" y="396.6" width="10.7" height="2.8" rx="1.4" opacity="0.6"/><rect x="168.6" y="388" width="29.7" height="2.8" rx="1.4" opacity="0.7"/><rect x="420.4" y="385.8" width="33.7" height="2.8" rx="1.4" opacity="0.4"/><rect x="146.6" y="396.9" width="22.9" height="2.8" rx="1.4" opacity="0.5"/><rect x="263.2" y="355.1" width="12.9" height="2.8" rx="1.4" opacity="0.4"/><rect x="560.4" y="395.4" width="23.3" height="2.8" rx="1.4" opacity="0.6"/><rect x="160.8" y="394.7" width="10.1" height="2.8" rx="1.4" opacity="0.5"/><rect x="788.1" y="351.2" width="31.9" height="2.8" rx="1.4" opacity="0.4"/></g>
<g fill="#CDF6EC" opacity="0.24"><ellipse cx="498" cy="362" rx="38" ry="8"/><ellipse cx="716" cy="372" rx="28" ry="6"/></g>
<path d="M-60 404.2C-47.8 407.3 -11.1 422.5 13.3 422.9C37.8 423.4 62.2 408.5 86.7 406.9C111.1 405.3 135.6 409.6 160 413.5C184.4 417.4 208.9 422.3 233.3 430.1C257.8 438 282.2 455.3 306.7 460.7C331.1 466 355.6 466.8 380 462C404.4 457.3 428.9 438.6 453.3 432.3C477.8 426 502.2 426.7 526.7 424C551.1 421.3 575.6 416 600 416C624.4 416 648.9 427.1 673.3 424C697.8 420.8 722.2 400.5 746.7 397.2C771.1 394 795.6 400 820 404.6C844.4 409.1 868.9 415.8 893.3 424.6C917.8 433.3 942.2 451.6 966.7 457C991.1 462.3 1015.6 460.3 1040 456.8C1064.4 453.2 1088.9 439 1113.3 435.5C1137.8 432.1 1162.2 437.2 1186.7 436.2C1211.1 435.1 1247.8 430.4 1260 429.3L1260 490L-60 490Z" fill="#020B10"/>
<g fill="#BFF3E8" opacity="0.2"><rect x="311.7" y="459.5" width="18.3" height="2.8" rx="1.4" opacity="0.7"/><rect x="783.2" y="401.4" width="39" height="2.8" rx="1.4" opacity="0.9"/><rect x="1090.6" y="438.8" width="12.9" height="2.8" rx="1.4" opacity="0.7"/><rect x="168.7" y="418.4" width="38.2" height="2.8" rx="1.4" opacity="0.8"/><rect x="415.7" y="441.2" width="24.7" height="2.8" rx="1.4" opacity="0.7"/><rect x="1004.4" y="455.4" width="36.7" height="2.8" rx="1.4" opacity="0.7"/><rect x="349" y="460.2" width="16.4" height="2.8" rx="1.4" opacity="0.6"/><rect x="205.5" y="427.3" width="42.8" height="2.8" rx="1.4" opacity="0.5"/><rect x="135.9" y="411.3" width="30.8" height="2.8" rx="1.4" opacity="0.9"/><rect x="1187" y="433.2" width="32.1" height="2.8" rx="1.4" opacity="0.7"/><rect x="85.4" y="406.6" width="26.3" height="2.8" rx="1.4" opacity="0.6"/><rect x="693.8" y="410.8" width="23.5" height="2.8" rx="1.4" opacity="0.4"/><rect x="103.6" y="407.5" width="10.2" height="2.8" rx="1.4" opacity="0.8"/><rect x="236.5" y="434.8" width="23" height="2.8" rx="1.4" opacity="0.3"/><rect x="1248.5" y="427.9" width="22.7" height="2.8" rx="1.4" opacity="0.9"/><rect x="108.8" y="408.1" width="13" height="2.8" rx="1.4" opacity="0.4"/></g>
</svg>
