<svg width="273" height="60" viewBox="0 0 273 60" fill="none" xmlns="http://www.w3.org/2000/svg">
<path d="M0 10C0 4.47715 4.47715 0 10 0H50C55.5228 0 60 4.47715 60 10V40C60 51.0457 51.0457 60 40 60H10C4.47715 60 0 55.5228 0 50V10Z" fill="#D9D9D9"/>
<rect x="26.0453" y="6.69604" width="7.90945" height="47.7533" rx="1" fill="#262626"/>
<rect x="15.4194" y="16.4758" width="29.0812" height="7.84141" rx="1" fill="#262626"/>
<path d="M0 10C0 4.47715 4.47715 0 10 0H50C55.5228 0 60 4.47715 60 10V40C60 51.0457 51.0457 60 40 60H10C4.47715 60 0 55.5228 0 50V10Z" fill="#D9D9D9"/>
<rect x="26.0453" y="6.69604" width="7.90945" height="47.7533" rx="1" fill="#262626"/>
<rect x="15.4194" y="16.4758" width="29.0812" height="7.84141" rx="1" fill="#262626"/>
<path d="M85.8349 41.642V19.79L83.0809 19.286V17.252H88.4449C89.2009 17.252 89.8969 17.234 90.5329 17.198C91.1809 17.15 91.8049 17.102 92.4049 17.054C93.0049 17.006 93.6169 16.982 94.2409 16.982C96.1489 16.982 97.7329 17.126 98.9929 17.414C100.253 17.702 101.249 18.116 101.981 18.656C102.713 19.196 103.235 19.844 103.547 20.6C103.859 21.344 104.015 22.178 104.015 23.102C104.015 24.302 103.769 25.37 103.277 26.306C102.785 27.23 102.101 27.986 101.225 28.574C100.361 29.162 99.3649 29.546 98.2369 29.726C99.7849 29.714 101.129 29.954 102.269 30.446C103.409 30.926 104.291 31.634 104.915 32.57C105.539 33.506 105.851 34.628 105.851 35.936C105.851 37.076 105.665 38.144 105.293 39.14C104.921 40.136 104.303 41.018 103.439 41.786C102.587 42.542 101.423 43.136 99.9469 43.568C98.4709 44 96.6289 44.216 94.4209 44.216C93.6169 44.216 92.9149 44.198 92.3149 44.162C91.7269 44.126 91.1389 44.09 90.5509 44.054C89.9629 44.018 89.2669 44 88.4629 44H83.0269V42.056L85.8349 41.642ZM91.1449 28.988C91.3489 29 91.5889 29.012 91.8649 29.024C92.1409 29.036 92.4289 29.048 92.7289 29.06C93.0289 29.06 93.3229 29.06 93.6109 29.06C93.8989 29.06 94.1509 29.06 94.3669 29.06C95.3629 29.06 96.1789 28.838 96.8149 28.394C97.4509 27.95 97.9189 27.326 98.2189 26.522C98.5309 25.718 98.6869 24.776 98.6869 23.696C98.6869 22.1 98.3269 20.918 97.6069 20.15C96.8869 19.382 95.6569 18.998 93.9169 18.998C93.6289 18.998 93.2989 19.01 92.9269 19.034C92.5669 19.058 92.2249 19.088 91.9009 19.124C91.5769 19.16 91.3249 19.184 91.1449 19.196V28.988ZM91.1449 41.804C91.3609 41.888 91.6429 41.954 91.9909 42.002C92.3509 42.038 92.7289 42.068 93.1249 42.092C93.5329 42.104 93.9109 42.11 94.2589 42.11C95.6509 42.11 96.7609 41.876 97.5889 41.408C98.4289 40.94 99.0289 40.274 99.3889 39.41C99.7609 38.546 99.9469 37.526 99.9469 36.35C99.9469 34.55 99.5329 33.266 98.7049 32.498C97.8889 31.718 96.5929 31.328 94.8169 31.328C94.5289 31.328 94.2169 31.334 93.8809 31.346C93.5449 31.346 93.1969 31.346 92.8369 31.346C92.4889 31.346 92.1709 31.352 91.8829 31.364C91.5949 31.364 91.3489 31.376 91.1449 31.4V41.804ZM105.887 44V42.056L108.317 41.696V27.602L105.851 26.9V24.74L112.349 23.822H112.511L113.465 24.524V41.714L115.859 42.056V44H105.887ZM110.513 21.158C109.601 21.158 108.905 20.882 108.425 20.33C107.957 19.766 107.723 19.124 107.723 18.404C107.723 17.552 107.987 16.814 108.515 16.19C109.043 15.566 109.817 15.254 110.837 15.254H110.873C111.773 15.254 112.457 15.524 112.925 16.064C113.405 16.604 113.645 17.234 113.645 17.954C113.645 18.806 113.381 19.556 112.853 20.204C112.337 20.84 111.569 21.158 110.549 21.158H110.513ZM115.826 52.748C115.562 52.748 115.28 52.742 114.98 52.73C114.68 52.718 114.41 52.7 114.17 52.676C113.93 52.652 113.762 52.622 113.666 52.586L113.45 50.66C113.618 50.66 113.876 50.636 114.224 50.588C114.584 50.54 114.95 50.426 115.322 50.246C115.946 49.97 116.438 49.508 116.798 48.86C117.158 48.212 117.416 47.378 117.572 46.358C117.74 45.35 117.824 44.168 117.824 42.812L117.806 27.656L115.304 26.954V24.74L121.73 23.822H121.892L122.846 24.506V43.676C122.846 45.164 122.63 46.472 122.198 47.6C121.778 48.728 121.22 49.664 120.524 50.408C119.828 51.164 119.066 51.734 118.238 52.118C117.422 52.502 116.618 52.712 115.826 52.748ZM119.768 21.158C118.856 21.158 118.16 20.882 117.68 20.33C117.212 19.766 116.978 19.124 116.978 18.404C116.978 17.552 117.242 16.814 117.77 16.19C118.298 15.566 119.072 15.254 120.092 15.254H120.128C121.028 15.254 121.712 15.524 122.18 16.064C122.66 16.604 122.9 17.234 122.9 17.954C122.9 18.806 122.636 19.556 122.108 20.204C121.592 20.84 120.824 21.158 119.804 21.158H119.768ZM123.228 17.126V15.416L129.69 14.516H129.852L130.86 15.164V26.09C131.208 25.718 131.646 25.352 132.174 24.992C132.714 24.62 133.332 24.32 134.028 24.092C134.724 23.852 135.474 23.732 136.278 23.732C137.706 23.732 138.996 24.068 140.148 24.74C141.312 25.412 142.23 26.462 142.902 27.89C143.586 29.306 143.928 31.142 143.928 33.398C143.928 34.97 143.688 36.428 143.208 37.772C142.728 39.104 142.032 40.268 141.12 41.264C140.208 42.26 139.11 43.034 137.826 43.586C136.542 44.126 135.114 44.396 133.542 44.396C132.054 44.396 130.764 44.306 129.672 44.126C128.592 43.946 127.722 43.748 127.062 43.532C126.414 43.316 126.006 43.148 125.838 43.028V17.594L123.228 17.126ZM134.298 26.756C133.77 26.756 133.284 26.84 132.84 27.008C132.396 27.176 132.006 27.386 131.67 27.638C131.334 27.89 131.064 28.13 130.86 28.358V41.444C131.004 41.732 131.34 41.972 131.868 42.164C132.408 42.344 133.002 42.434 133.65 42.434C134.622 42.434 135.468 42.122 136.188 41.498C136.908 40.874 137.466 39.938 137.862 38.69C138.27 37.442 138.48 35.876 138.492 33.992C138.516 32.252 138.342 30.854 137.97 29.798C137.598 28.73 137.088 27.956 136.44 27.476C135.804 26.996 135.09 26.756 134.298 26.756ZM154.295 44.396C152.135 44.396 150.365 43.964 148.985 43.1C147.617 42.236 146.603 41.036 145.943 39.5C145.295 37.952 144.971 36.17 144.971 34.154C144.971 32.534 145.205 31.082 145.673 29.798C146.141 28.502 146.795 27.404 147.635 26.504C148.487 25.604 149.495 24.92 150.659 24.452C151.835 23.972 153.131 23.732 154.547 23.732C156.959 23.732 158.807 24.356 160.091 25.604C161.375 26.852 162.041 28.616 162.089 30.896C162.089 31.688 162.065 32.372 162.017 32.948C161.981 33.512 161.915 33.998 161.819 34.406H150.317C150.365 35.498 150.515 36.476 150.767 37.34C151.019 38.192 151.367 38.918 151.811 39.518C152.267 40.118 152.825 40.574 153.485 40.886C154.145 41.186 154.913 41.336 155.789 41.336C156.737 41.336 157.697 41.174 158.669 40.85C159.641 40.526 160.391 40.172 160.919 39.788L161.747 41.606C161.375 42.014 160.805 42.434 160.037 42.866C159.269 43.298 158.381 43.664 157.373 43.964C156.377 44.252 155.351 44.396 154.295 44.396ZM150.299 32.39L156.977 32.354C156.989 32.09 157.001 31.82 157.013 31.544C157.037 31.268 157.049 30.998 157.049 30.734C157.049 29.258 156.827 28.082 156.383 27.206C155.939 26.318 155.147 25.874 154.007 25.874C153.491 25.874 153.011 25.982 152.567 26.198C152.135 26.402 151.751 26.75 151.415 27.242C151.091 27.722 150.833 28.388 150.641 29.24C150.449 30.08 150.335 31.13 150.299 32.39ZM164.37 41.696V17.666L161.778 17.198V15.416L168.312 14.516H168.474L169.41 15.182V41.714L171.966 42.056V44H161.904V42.056L164.37 41.696ZM181.001 44.396C179.573 44.396 178.301 44.264 177.185 44C176.069 43.748 175.121 43.496 174.341 43.244C173.561 42.98 172.967 42.83 172.559 42.794L172.901 36.188H175.871L176.681 40.886C176.885 41.114 177.185 41.336 177.581 41.552C177.989 41.756 178.481 41.93 179.057 42.074C179.645 42.218 180.299 42.29 181.019 42.29C182.171 42.302 183.107 42.134 183.827 41.786C184.559 41.438 185.093 40.958 185.429 40.346C185.777 39.734 185.951 39.026 185.951 38.222C185.951 37.322 185.681 36.554 185.141 35.918C184.613 35.27 183.881 34.682 182.945 34.154C182.009 33.614 180.929 33.068 179.705 32.516C178.997 32.192 178.241 31.802 177.437 31.346C176.633 30.878 175.877 30.32 175.169 29.672C174.461 29.024 173.885 28.244 173.441 27.332C172.997 26.42 172.775 25.352 172.775 24.128C172.775 22.832 173.129 21.638 173.837 20.546C174.557 19.454 175.619 18.578 177.023 17.918C178.427 17.246 180.167 16.91 182.243 16.91C183.227 16.91 184.109 16.97 184.889 17.09C185.681 17.21 186.377 17.354 186.977 17.522C187.577 17.678 188.093 17.828 188.525 17.972C188.957 18.104 189.299 18.182 189.551 18.206L189.281 24.452H186.401L185.627 19.934C185.519 19.79 185.303 19.646 184.979 19.502C184.655 19.346 184.253 19.22 183.773 19.124C183.293 19.016 182.759 18.962 182.171 18.962C181.151 18.962 180.317 19.124 179.669 19.448C179.021 19.76 178.535 20.186 178.211 20.726C177.899 21.266 177.743 21.884 177.743 22.58C177.743 23.588 178.031 24.428 178.607 25.1C179.195 25.772 179.969 26.372 180.929 26.9C181.901 27.416 182.963 27.962 184.115 28.538C184.883 28.898 185.681 29.312 186.509 29.78C187.337 30.248 188.105 30.794 188.813 31.418C189.521 32.042 190.097 32.768 190.541 33.596C190.985 34.412 191.207 35.372 191.207 36.476C191.207 37.4 191.027 38.33 190.667 39.266C190.307 40.202 189.731 41.06 188.939 41.84C188.147 42.608 187.097 43.226 185.789 43.694C184.481 44.162 182.885 44.396 181.001 44.396ZM197.284 44.36C195.82 44.36 194.722 44.024 193.99 43.352C193.27 42.668 192.91 41.564 192.91 40.04V26.864H190.588V25.028C190.852 24.932 191.128 24.842 191.416 24.758C191.716 24.674 191.992 24.59 192.244 24.506C192.496 24.41 192.694 24.296 192.838 24.164C193.006 24.02 193.15 23.87 193.27 23.714C193.402 23.546 193.516 23.36 193.612 23.156C193.72 22.952 193.828 22.718 193.936 22.454C194.056 22.154 194.182 21.794 194.314 21.374C194.458 20.954 194.596 20.522 194.728 20.078C194.872 19.634 194.992 19.232 195.088 18.872H197.914L198.058 24.272H203.134V26.864H198.094V37.268C198.094 38.468 198.142 39.344 198.238 39.896C198.334 40.448 198.514 40.796 198.778 40.94C199.042 41.084 199.432 41.156 199.948 41.156C200.512 41.156 201.094 41.084 201.694 40.94C202.294 40.796 202.78 40.652 203.152 40.508L203.818 42.362C203.422 42.686 202.882 42.998 202.198 43.298C201.514 43.598 200.746 43.85 199.894 44.054C199.054 44.258 198.184 44.36 197.284 44.36ZM219.734 44.342C218.942 44.342 218.36 44.186 217.988 43.874C217.616 43.562 217.43 43.07 217.43 42.398V41.318C217.046 41.81 216.53 42.296 215.882 42.776C215.234 43.244 214.514 43.634 213.722 43.946C212.942 44.246 212.132 44.396 211.292 44.396C209.06 44.396 207.464 43.82 206.504 42.668C205.544 41.504 205.064 39.596 205.064 36.944V26.882L203.264 26.342V24.488L209.294 23.84H209.42L210.176 24.344V36.926C210.176 38.03 210.26 38.912 210.428 39.572C210.596 40.22 210.89 40.694 211.31 40.994C211.73 41.294 212.312 41.444 213.056 41.444C213.668 41.444 214.22 41.36 214.712 41.192C215.204 41.012 215.63 40.802 215.99 40.562C216.362 40.322 216.668 40.088 216.908 39.86V26.882L214.568 26.288V24.488L220.958 23.84H221.138L221.984 24.344V41.912L223.91 41.948L223.892 43.802C223.472 43.898 222.902 44.012 222.182 44.144C221.474 44.276 220.658 44.342 219.734 44.342ZM231.849 44.396C230.805 44.396 229.815 44.204 228.879 43.82C227.955 43.436 227.133 42.848 226.413 42.056C225.705 41.264 225.147 40.256 224.739 39.032C224.331 37.808 224.127 36.35 224.127 34.658C224.127 32.63 224.535 30.794 225.351 29.15C226.167 27.494 227.349 26.18 228.897 25.208C230.457 24.224 232.335 23.732 234.531 23.732C235.047 23.732 235.533 23.768 235.989 23.84C236.457 23.912 236.871 24.002 237.231 24.11V17.576L233.847 17.108V15.29L241.119 14.516H241.371L242.271 15.218V41.966H244.161V43.856C243.657 43.964 243.009 44.078 242.217 44.198C241.425 44.33 240.651 44.396 239.895 44.396C239.187 44.396 238.647 44.282 238.275 44.054C237.903 43.838 237.717 43.34 237.717 42.56V41.498C237.345 42.026 236.859 42.512 236.259 42.956C235.671 43.388 234.999 43.736 234.243 44C233.487 44.264 232.689 44.396 231.849 44.396ZM233.775 41.534C234.327 41.534 234.831 41.45 235.287 41.282C235.743 41.114 236.133 40.904 236.457 40.652C236.793 40.388 237.051 40.13 237.231 39.878V26.828C237.063 26.564 236.721 26.336 236.205 26.144C235.689 25.952 235.119 25.856 234.495 25.856C233.559 25.856 232.725 26.126 231.993 26.666C231.261 27.206 230.685 28.076 230.265 29.276C229.845 30.476 229.623 32.066 229.599 34.046C229.587 35.834 229.767 37.28 230.139 38.384C230.511 39.488 231.015 40.292 231.651 40.796C232.287 41.288 232.995 41.534 233.775 41.534ZM244.41 44V42.056L246.84 41.696V27.602L244.374 26.9V24.74L250.872 23.822H251.034L251.988 24.524V41.714L254.382 42.056V44H244.41ZM249.036 21.158C248.124 21.158 247.428 20.882 246.948 20.33C246.48 19.766 246.246 19.124 246.246 18.404C246.246 17.552 246.51 16.814 247.038 16.19C247.566 15.566 248.34 15.254 249.36 15.254H249.396C250.296 15.254 250.98 15.524 251.448 16.064C251.928 16.604 252.168 17.234 252.168 17.954C252.168 18.806 251.904 19.556 251.376 20.204C250.86 20.84 250.092 21.158 249.072 21.158H249.036ZM263.476 44.396C261.316 44.396 259.546 43.964 258.166 43.1C256.798 42.236 255.784 41.036 255.124 39.5C254.476 37.952 254.152 36.17 254.152 34.154C254.152 32.534 254.386 31.082 254.854 29.798C255.322 28.502 255.976 27.404 256.816 26.504C257.668 25.604 258.676 24.92 259.84 24.452C261.016 23.972 262.312 23.732 263.728 23.732C266.14 23.732 267.988 24.356 269.272 25.604C270.556 26.852 271.222 28.616 271.27 30.896C271.27 31.688 271.246 32.372 271.198 32.948C271.162 33.512 271.096 33.998 271 34.406H259.498C259.546 35.498 259.696 36.476 259.948 37.34C260.2 38.192 260.548 38.918 260.992 39.518C261.448 40.118 262.006 40.574 262.666 40.886C263.326 41.186 264.094 41.336 264.97 41.336C265.918 41.336 266.878 41.174 267.85 40.85C268.822 40.526 269.572 40.172 270.1 39.788L270.928 41.606C270.556 42.014 269.986 42.434 269.218 42.866C268.45 43.298 267.562 43.664 266.554 43.964C265.558 44.252 264.532 44.396 263.476 44.396ZM259.48 32.39L266.158 32.354C266.17 32.09 266.182 31.82 266.194 31.544C266.218 31.268 266.23 30.998 266.23 30.734C266.23 29.258 266.008 28.082 265.564 27.206C265.12 26.318 264.328 25.874 263.188 25.874C262.672 25.874 262.192 25.982 261.748 26.198C261.316 26.402 260.932 26.75 260.596 27.242C260.272 27.722 260.014 28.388 259.822 29.24C259.63 30.08 259.516 31.13 259.48 32.39Z" fill="#EDEDED"/>
</svg>
